<svg width="50" height="50" viewBox="0 0 50 50" fill="none" xmlns="http://www.w3.org/2000/svg">
<path d="M21.17 24.6441C21.0325 24.3524 20.7391 24.1666 20.4167 24.1666H16.5016L19.555 12.7157C19.6558 12.3365 19.4791 11.939 19.1307 11.7598C18.7824 11.5798 18.3557 11.6681 18.1066 11.9707L6.44002 26.1375C6.23504 26.3858 6.19256 26.7308 6.33006 27.0224C6.46756 27.3141 6.76092 27.5 7.08338 27.5H10.9984L7.945 38.9516C7.84412 39.3308 8.02078 39.7283 8.36912 39.9075C8.48992 39.97 8.62078 40 8.74998 40C8.99246 40 9.23084 39.8941 9.39334 39.6958L21.06 25.5291C21.265 25.2808 21.3075 24.9358 21.17 24.6441ZM10.5425 35.6792L12.8883 26.8817C12.955 26.6317 12.9015 26.365 12.7441 26.1592C12.5866 25.9543 12.3425 25.8334 12.0833 25.8334H8.8491L16.9574 15.9876L14.6116 24.785C14.5449 25.035 14.5982 25.3017 14.7557 25.5075C14.9133 25.7125 15.1574 25.8334 15.4166 25.8334H18.6508L10.5425 35.6792Z" fill="#1F62A8"/>
<path d="M18.75 0H8.74999C8.29003 0 7.91669 0.37334 7.91669 0.833301V4.1666C7.91669 4.62656 8.29003 4.9999 8.74999 4.9999H18.75C19.2099 4.9999 19.5833 4.62656 19.5833 4.1666V0.833301C19.5833 0.37334 19.2099 0 18.75 0ZM17.9167 3.3333H9.58329V1.6667H17.9166V3.3333H17.9167Z" fill="#1F62A8"/>
<path d="M23.0575 3.33325H4.44248C2.68164 3.33325 1.25 4.76577 1.25 6.52583V46.8075C1.25 48.5674 2.68164 50 4.44248 50H23.0575C24.8175 50 26.25 48.5674 26.25 46.8075V6.52583C26.25 4.76577 24.8175 3.33325 23.0575 3.33325ZM24.5833 46.8075C24.5833 47.6492 23.8991 48.3334 23.0574 48.3334H4.44248C3.60078 48.3334 2.9166 47.6492 2.9166 46.8075V6.52583C2.9166 5.68413 3.60078 4.99995 4.44248 4.99995H23.0575C23.8992 4.99995 24.5834 5.68413 24.5834 6.52583V46.8075H24.5833Z" fill="#1F62A8"/>
<path d="M35.4167 0C34.0384 0 32.9167 1.12168 32.9167 2.5V9.1667C32.9167 9.62666 33.29 10 33.75 10H37.0833C37.5432 10 37.9166 9.62666 37.9166 9.1667V2.5C37.9167 1.12168 36.795 0 35.4167 0ZM36.25 8.3333H34.5833V2.5C34.5833 2.04082 34.9574 1.6667 35.4166 1.6667C35.8758 1.6667 36.2499 2.04082 36.2499 2.5V8.3333H36.25Z" fill="#1F62A8"/>
<path d="M43.75 0C42.3716 0 41.25 1.12168 41.25 2.5V9.1667C41.25 9.62666 41.6233 10 42.0833 10H45.4166C45.8765 10 46.2499 9.62666 46.2499 9.1667V2.5C46.25 1.12168 45.1283 0 43.75 0ZM44.5833 8.3333H42.9166V2.5C42.9166 2.04082 43.2907 1.6667 43.7499 1.6667C44.2091 1.6667 44.5832 2.04082 44.5832 2.5V8.3333H44.5833Z" fill="#1F62A8"/>
<path d="M47.9167 8.33325H31.25C30.79 8.33325 30.4167 8.70659 30.4167 9.16655V12.4999C30.4167 12.9599 30.79 13.3332 31.25 13.3332H47.9167C48.3766 13.3332 48.75 12.9599 48.75 12.4999V9.16665C48.75 8.70659 48.3766 8.33325 47.9167 8.33325ZM47.0833 11.6666H32.0833V9.99995H47.0833V11.6666Z" fill="#1F62A8"/>
<path d="M46.25 11.6666H32.9167C32.4567 11.6666 32.0834 12.04 32.0834 12.4999V20.0008C32.0834 21.8383 33.5784 23.3333 35.4159 23.3333H43.7509C45.5884 23.3333 47.0834 21.8383 47.0834 20.0008V12.4999C47.0833 12.04 46.71 11.6666 46.25 11.6666ZM45.4167 20.0008C45.4167 20.9199 44.67 21.6666 43.7517 21.6666H35.4158C34.4967 21.6666 33.75 20.9199 33.75 20.0008V13.3333H45.4167V20.0008Z" fill="#1F62A8"/>
<path d="M41.25 21.6667H37.9167C37.4567 21.6667 37.0834 22.0401 37.0834 22.5V24.1667C37.0834 25.5451 38.2051 26.6667 39.5834 26.6667C40.9617 26.6667 42.0834 25.5451 42.0834 24.1667V22.5C42.0833 22.0401 41.71 21.6667 41.25 21.6667ZM40.4167 24.1667C40.4167 24.6259 40.0426 25 39.5834 25C39.1242 25 38.7501 24.6259 38.7501 24.1667V23.3334H40.4168V24.1667H40.4167Z" fill="#1F62A8"/>
<path d="M39.5833 24.9999C39.1233 24.9999 38.75 25.3732 38.75 25.8332V44.1665C38.75 46.0049 37.255 47.4998 35.4167 47.4998C33.5783 47.4998 32.0834 46.0048 32.0834 44.1665V25.8332C32.0834 22.1573 29.0926 19.1665 25.4167 19.1665C24.9567 19.1665 24.5834 19.5398 24.5834 19.9998C24.5834 20.4598 24.9567 20.8331 25.4167 20.8331C28.1742 20.8331 30.4167 23.0756 30.4167 25.8331V44.1664C30.4167 46.9239 32.6592 49.1664 35.4167 49.1664C38.1742 49.1664 40.4167 46.9239 40.4167 44.1664V25.8332C40.4167 25.3732 40.0433 24.9999 39.5833 24.9999Z" fill="#1F62A8"/>
</svg>
