<svg width="55" height="55" viewBox="0 0 55 55" fill="none" xmlns="http://www.w3.org/2000/svg">
<g clip-path="url(#clip0)">
<path d="M45.8333 27.4997C46.3396 27.4997 46.75 27.0892 46.75 26.583V13.7497H54.0833C54.5896 13.7497 55 13.3392 55 12.833V9.16634C54.9953 9.13231 54.9885 9.09873 54.9798 9.06551C54.974 8.99916 54.9608 8.93362 54.9404 8.87026C54.9235 8.82362 54.9026 8.77859 54.8781 8.73551C54.7955 8.57921 54.6677 8.45145 54.5114 8.36884C54.4655 8.34317 54.4173 8.32175 54.3675 8.30467C54.3409 8.29551 54.3198 8.27809 54.2923 8.27167L19.459 0.021678C19.3905 0.00632381 19.3204 -0.00100951 19.25 -0.000322015H15.5833C15.4749 0.00208423 15.3678 0.0237405 15.2671 0.0638446C15.2423 0.0730113 15.2194 0.0812613 15.1956 0.0922613C15.1718 0.103261 15.1534 0.106011 15.1333 0.117011L0.466583 8.36701C0.421323 8.39726 0.379042 8.43163 0.340083 8.46967C0.309948 8.4911 0.281188 8.51436 0.253917 8.53934C0.177146 8.61749 0.115156 8.70881 0.0705833 8.80884V8.81984C0.0305937 8.92056 0.00882292 9.02769 0.00641667 9.13609C0.00641667 9.1472 0 9.15626 0 9.16726V12.8339C0 13.3401 0.410437 13.7506 0.916667 13.7506H13.75V30.7868L10.3519 34.1849C10.18 34.3568 10.0833 34.5898 10.0833 34.833V49.4996H8.25V54.9996H26.5833V49.4996H24.75V34.833C24.75 34.5898 24.6533 34.3568 24.4814 34.1849L21.0833 30.7868V13.7497H39.4167V26.583C39.4167 27.0892 39.8271 27.4997 40.3333 27.4997H42.1667V30.2497C42.1667 30.7559 42.5771 31.1663 43.0833 31.1663C44.0959 31.1663 44.9167 31.9871 44.9167 32.9997C44.9167 34.0122 44.0959 34.833 43.0833 34.833C42.0708 34.833 41.25 34.0122 41.25 32.9997V32.083H39.4167V32.9997C39.4214 34.3379 40.157 35.5664 41.3343 36.2025L34.4538 43.083H32.0833C31.5771 43.083 31.1667 43.4934 31.1667 43.9996V52.2496C31.1667 52.7559 31.5771 53.1663 32.0833 53.1663H54.0833C54.5896 53.1663 55 52.7559 55 52.2496V43.9996C55 43.4934 54.5896 43.083 54.0833 43.083H51.7128L44.8323 36.2025C46.6078 35.2455 47.2712 33.0305 46.3144 31.255C45.8296 30.3556 44.9902 29.7005 44 29.4485V27.4997H45.8333ZM46.75 10.083H53.1667V11.9163H46.75V10.083ZM53.1667 44.9163V51.333H33V44.9163H53.1667ZM49.1205 43.083H37.0462L43.0833 37.0459L49.1205 43.083ZM44.9167 21.9997H41.25V13.7497H44.9167V21.9997ZM44.9167 11.9163H41.25V10.083H44.9167V11.9163ZM16.5 1.83301H18.3333V8.24967H16.5V1.83301ZM15.5833 10.083H19.25V11.5368L18.8705 11.9163H15.5833V10.083ZM19.25 14.1292V20.7035L15.9628 17.4163L19.25 14.1292ZM15.5833 13.7497H17.0372L15.5833 15.2035V13.7497ZM15.5833 19.6293L18.8705 22.9163L15.5833 26.2035V19.6293ZM19.25 25.1293V31.1663V31.7035L15.9628 28.4163L19.25 25.1293ZM15.5833 31.1663V30.6292L18.8705 33.9163L15.5833 37.2035V31.1663ZM19.25 36.1293V42.7036L15.9628 39.4163L19.25 36.1293ZM15.5833 41.6293L18.8705 44.9163L15.5833 48.2035V41.6293ZM19.25 47.1293V49.4996H16.8795L19.25 47.1293ZM14.6667 2.48384V8.24967H4.41558L14.6667 2.48384ZM1.83333 11.9163V10.083H13.75V11.9163H1.83333ZM11.9167 35.2126L13.75 33.3793V49.4996H11.9167V35.2126ZM24.75 51.333V53.1663H10.0833V51.333H24.75ZM22.9167 35.2126V49.4996H21.0833V33.3793L22.9167 35.2126ZM39.4167 11.9163H21.0833V10.083H39.4167V11.9163ZM20.1667 8.24967V2.07501L46.2358 8.24967H45.8333H20.1667ZM41.25 25.6663V23.833H44.9167V25.6663H41.25Z" fill="#1F62A8"/>
</g>
<defs>
<clipPath id="clip0">
<rect width="55" height="55" fill="white"/>
</clipPath>
</defs>
</svg>
