<svg width="91" height="60" viewBox="0 0 91 60" fill="none" xmlns="http://www.w3.org/2000/svg">
<path fill-rule="evenodd" clip-rule="evenodd" d="M2.49626 2.49626V43.2684H90.2813V45.7647L2.49626 45.7647L2.08021 45.7647L0 45.7647V0H2.08021H2.49626H52.0053V2.49626H2.49626ZM14.8615 15.8096C14.6958 15.8096 14.5615 15.9439 14.5615 16.1096V29.6551C14.5615 29.8208 14.6958 29.9551 14.8615 29.9551H17.5898C17.7555 29.9551 17.8898 29.8208 17.8898 29.6551V16.1096C17.8898 15.9439 17.7555 15.8096 17.5898 15.8096H14.8615ZM70.3112 16.1097C70.3112 15.944 70.1769 15.8097 70.0112 15.8097H65.6187C65.453 15.8097 65.3187 15.944 65.3187 16.1097V18.838C65.3187 19.0037 65.453 19.138 65.6187 19.138H70.0112C70.1769 19.138 70.3112 19.0037 70.3112 18.838V16.1097ZM23.4144 26.6268C23.5801 26.6268 23.7144 26.7611 23.7144 26.9268V29.6551C23.7144 29.8208 23.5801 29.9551 23.4144 29.9551H19.0219C18.8562 29.9551 18.7219 29.8208 18.7219 29.6551V26.9268C18.7219 26.7611 18.8562 26.6268 19.0219 26.6268H23.4144ZM77.2679 15.8097C77.1022 15.8097 76.9679 15.944 76.9679 16.1097V29.6551C76.9679 29.8208 77.1022 29.9551 77.2679 29.9551H79.9962C80.1619 29.9551 80.2962 29.8208 80.2962 29.6551V16.1097C80.2962 15.944 80.1619 15.8097 79.9962 15.8097H77.2679ZM85.8208 26.6268C85.9865 26.6268 86.1208 26.7611 86.1208 26.9268V29.6551C86.1208 29.8208 85.9865 29.9551 85.8208 29.9551H81.4283C81.2626 29.9551 81.1283 29.8208 81.1283 29.6551V26.9268C81.1283 26.7611 81.2626 26.6268 81.4283 26.6268H85.8208ZM61.4583 15.8097C61.2926 15.8097 61.1583 15.944 61.1583 16.1097V29.6551C61.1583 29.8208 61.2926 29.9551 61.4583 29.9551H64.1866C64.3523 29.9551 64.4866 29.8208 64.4866 29.6551V16.1097C64.4866 15.944 64.3523 15.8097 64.1866 15.8097H61.4583ZM67.5149 22.4664C67.6806 22.4664 67.8149 22.6007 67.8149 22.7664V25.4947C67.8149 25.6604 67.6806 25.7947 67.5149 25.7947H65.6187C65.453 25.7947 65.3187 25.6604 65.3187 25.4947V22.7664C65.3187 22.6007 65.453 22.4664 65.6187 22.4664H67.5149ZM30.6711 15.8097C30.5054 15.8097 30.3711 15.944 30.3711 16.1097V29.6551C30.3711 29.8208 30.5054 29.9551 30.6711 29.9551H33.3994C33.5651 29.9551 33.6994 29.8208 33.6994 29.6551V16.1097C33.6994 15.944 33.5651 15.8097 33.3994 15.8097H30.6711ZM34.5315 27.1397C34.5315 27.289 34.6412 27.4164 34.7898 27.431C34.9786 27.4494 35.17 27.4589 35.3636 27.4589C38.5804 27.4589 41.1882 24.8511 41.1882 21.6343C41.1882 18.4174 38.5804 15.8097 35.3636 15.8097C35.17 15.8097 34.9786 15.8191 34.7898 15.8376C34.6412 15.8521 34.5315 15.9795 34.5315 16.1288V18.8558C34.5315 19.0629 34.7375 19.2083 34.9416 19.1735C35.0788 19.1502 35.2198 19.138 35.3636 19.138C36.7422 19.138 37.8599 20.2556 37.8599 21.6343C37.8599 23.0129 36.7422 24.1305 35.3636 24.1305C35.2198 24.1305 35.0788 24.1184 34.9416 24.095C34.7375 24.0603 34.5315 24.2057 34.5315 24.4127V27.1397ZM48.1449 28.291C47.9792 28.291 47.8449 28.4253 47.8449 28.591V29.6551C47.8449 29.8208 47.9792 29.9551 48.1449 29.9551H50.8732C51.0389 29.9551 51.1732 29.8208 51.1732 29.6551V28.591C51.1732 28.4253 51.0389 28.291 50.8732 28.291H48.1449ZM47.8449 27.1397C47.8449 27.289 47.9546 27.4164 48.1031 27.431C48.2919 27.4494 48.4833 27.4589 48.677 27.4589C51.8938 27.4589 54.5016 24.8511 54.5016 21.6343C54.5016 18.4174 51.8938 15.8097 48.677 15.8097C48.4833 15.8097 48.2919 15.8191 48.1031 15.8376C47.9546 15.8521 47.8449 15.9795 47.8449 16.1288V18.8558C47.8449 19.0629 48.0509 19.2083 48.255 19.1735C48.3922 19.1502 48.5331 19.138 48.677 19.138C50.0556 19.138 51.1732 20.2556 51.1732 21.6343C51.1732 23.0129 50.0556 24.1305 48.677 24.1305C48.5331 24.1305 48.3922 24.1184 48.255 24.095C48.0509 24.0603 47.8449 24.2057 47.8449 24.4127V27.1397Z" fill="#1F62A8"/>
<path d="M85.7048 54.668H86.918V58.9216H89.5466V59.9101H85.7048V54.668Z" fill="#1F62A8"/>
<path d="M77.384 54.668H78.5972V59.9101H77.384V54.668Z" fill="#1F62A8"/>
<path d="M67.78 55.6415V57.0269H70.2064V58.0005H67.78V59.9101H66.5668V54.668H70.5284V55.6415H67.78Z" fill="#1F62A8"/>
<path d="M56.9538 60C56.4096 60 55.9178 59.8827 55.4785 59.648C55.0441 59.4134 54.7021 59.0914 54.4525 58.682C54.2079 58.2676 54.0856 57.8033 54.0856 57.2891C54.0856 56.7748 54.2079 56.313 54.4525 55.9036C54.7021 55.4893 55.0441 55.1647 55.4785 54.9301C55.9178 54.6954 56.4096 54.5781 56.9538 54.5781C57.498 54.5781 57.9872 54.6954 58.4216 54.9301C58.8559 55.1647 59.1979 55.4893 59.4475 55.9036C59.6972 56.313 59.822 56.7748 59.822 57.2891C59.822 57.8033 59.6972 58.2676 59.4475 58.682C59.1979 59.0914 58.8559 59.4134 58.4216 59.648C57.9872 59.8827 57.498 60 56.9538 60ZM56.9538 58.9665C57.2633 58.9665 57.5429 58.8966 57.7925 58.7569C58.0421 58.6121 58.2368 58.4124 58.3766 58.1578C58.5214 57.9031 58.5938 57.6136 58.5938 57.2891C58.5938 56.9645 58.5214 56.675 58.3766 56.4204C58.2368 56.1657 58.0421 55.9685 57.7925 55.8287C57.5429 55.684 57.2633 55.6116 56.9538 55.6116C56.6442 55.6116 56.3647 55.684 56.115 55.8287C55.8654 55.9685 55.6682 56.1657 55.5234 56.4204C55.3836 56.675 55.3137 56.9645 55.3137 57.2891C55.3137 57.6136 55.3836 57.9031 55.5234 58.1578C55.6682 58.4124 55.8654 58.6121 56.115 58.7569C56.3647 58.8966 56.6442 58.9665 56.9538 58.9665Z" fill="#1F62A8"/>
<path d="M45.7763 59.9101L44.7653 58.4498H44.7054H43.6495V59.9101H42.4363V54.668H44.7054C45.1697 54.668 45.5716 54.7454 45.9111 54.9001C46.2556 55.0549 46.5202 55.2746 46.7049 55.5591C46.8897 55.8437 46.982 56.1807 46.982 56.5701C46.982 56.9595 46.8872 57.2965 46.6974 57.5811C46.5127 57.8607 46.2481 58.0754 45.9036 58.2251L47.0794 59.9101H45.7763ZM45.7539 56.5701C45.7539 56.2756 45.659 56.0509 45.4693 55.8961C45.2796 55.7364 45.0025 55.6565 44.638 55.6565H43.6495V57.4837H44.638C45.0025 57.4837 45.2796 57.4039 45.4693 57.2441C45.659 57.0843 45.7539 56.8597 45.7539 56.5701Z" fill="#1F62A8"/>
<path d="M33.0563 54.668C33.5206 54.668 33.9225 54.7454 34.262 54.9001C34.6064 55.0549 34.871 55.2746 35.0558 55.5591C35.2405 55.8437 35.3329 56.1807 35.3329 56.5701C35.3329 56.9545 35.2405 57.2915 35.0558 57.5811C34.871 57.8657 34.6064 58.0853 34.262 58.2401C33.9225 58.3899 33.5206 58.4648 33.0563 58.4648H32.0004V59.9101H30.7872V54.668H33.0563ZM32.9889 57.4763C33.3533 57.4763 33.6304 57.3989 33.8201 57.2441C34.0098 57.0843 34.1047 56.8597 34.1047 56.5701C34.1047 56.2756 34.0098 56.0509 33.8201 55.8961C33.6304 55.7364 33.3533 55.6565 32.9889 55.6565H32.0004V57.4763H32.9889Z" fill="#1F62A8"/>
<path d="M21.407 54.668C21.8713 54.668 22.2732 54.7454 22.6127 54.9001C22.9572 55.0549 23.2218 55.2746 23.4065 55.5591C23.5913 55.8437 23.6836 56.1807 23.6836 56.5701C23.6836 56.9545 23.5913 57.2915 23.4065 57.5811C23.2218 57.8657 22.9572 58.0853 22.6127 58.2401C22.2732 58.3899 21.8713 58.4648 21.407 58.4648H20.3511V59.9101H19.1379V54.668H21.407ZM21.3396 57.4763C21.7041 57.4763 21.9812 57.3989 22.1709 57.2441C22.3606 57.0843 22.4555 56.8597 22.4555 56.5701C22.4555 56.2756 22.3606 56.0509 22.1709 55.8961C21.9812 55.7364 21.7041 55.6565 21.3396 55.6565H20.3511V57.4763H21.3396Z" fill="#1F62A8"/>
<path d="M0 54.6681H1.21318V58.9217H3.84174V59.9102H0V54.6681Z" fill="#1F62A8"/>
<path d="M10.8171 54.668H12.0303V59.9101H10.8171V54.668Z" fill="#1F62A8"/>
</svg>
