<svg width="45" height="45" viewBox="0 0 45 45" fill="none" xmlns="http://www.w3.org/2000/svg">
<path fill-rule="evenodd" clip-rule="evenodd" d="M2.5 5C3.88071 5 5 3.88071 5 2.5C5 1.11929 3.88071 0 2.5 0C1.11929 0 0 1.11929 0 2.5C0 3.88071 1.11929 5 2.5 5Z" fill="#191919"/>
<path fill-rule="evenodd" clip-rule="evenodd" d="M12.5 5C13.8807 5 15 3.88071 15 2.5C15 1.11929 13.8807 0 12.5 0C11.1193 0 10 1.11929 10 2.5C10 3.88071 11.1193 5 12.5 5Z" fill="#191919"/>
<path fill-rule="evenodd" clip-rule="evenodd" d="M22.5 5C23.8807 5 25 3.88071 25 2.5C25 1.11929 23.8807 0 22.5 0C21.1193 0 20 1.11929 20 2.5C20 3.88071 21.1193 5 22.5 5Z" fill="#191919"/>
<path fill-rule="evenodd" clip-rule="evenodd" d="M32.5 5C33.8807 5 35 3.88071 35 2.5C35 1.11929 33.8807 0 32.5 0C31.1193 0 30 1.11929 30 2.5C30 3.88071 31.1193 5 32.5 5Z" fill="#191919"/>
<path fill-rule="evenodd" clip-rule="evenodd" d="M42.5 5C43.8807 5 45 3.88071 45 2.5C45 1.11929 43.8807 0 42.5 0C41.1193 0 40 1.11929 40 2.5C40 3.88071 41.1193 5 42.5 5Z" fill="#191919"/>
<path fill-rule="evenodd" clip-rule="evenodd" d="M2.5 15C3.88071 15 5 13.8807 5 12.5C5 11.1193 3.88071 10 2.5 10C1.11929 10 0 11.1193 0 12.5C0 13.8807 1.11929 15 2.5 15Z" fill="#191919"/>
<path fill-rule="evenodd" clip-rule="evenodd" d="M12.5 15C13.8807 15 15 13.8807 15 12.5C15 11.1193 13.8807 10 12.5 10C11.1193 10 10 11.1193 10 12.5C10 13.8807 11.1193 15 12.5 15Z" fill="#191919"/>
<path fill-rule="evenodd" clip-rule="evenodd" d="M22.5 15C23.8807 15 25 13.8807 25 12.5C25 11.1193 23.8807 10 22.5 10C21.1193 10 20 11.1193 20 12.5C20 13.8807 21.1193 15 22.5 15Z" fill="#191919"/>
<path fill-rule="evenodd" clip-rule="evenodd" d="M32.5 15C33.8807 15 35 13.8807 35 12.5C35 11.1193 33.8807 10 32.5 10C31.1193 10 30 11.1193 30 12.5C30 13.8807 31.1193 15 32.5 15Z" fill="#191919"/>
<path fill-rule="evenodd" clip-rule="evenodd" d="M42.5 15C43.8807 15 45 13.8807 45 12.5C45 11.1193 43.8807 10 42.5 10C41.1193 10 40 11.1193 40 12.5C40 13.8807 41.1193 15 42.5 15Z" fill="#191919"/>
<path fill-rule="evenodd" clip-rule="evenodd" d="M2.5 25C3.88071 25 5 23.8807 5 22.5C5 21.1193 3.88071 20 2.5 20C1.11929 20 0 21.1193 0 22.5C0 23.8807 1.11929 25 2.5 25Z" fill="#191919"/>
<path fill-rule="evenodd" clip-rule="evenodd" d="M12.5 25C13.8807 25 15 23.8807 15 22.5C15 21.1193 13.8807 20 12.5 20C11.1193 20 10 21.1193 10 22.5C10 23.8807 11.1193 25 12.5 25Z" fill="#191919"/>
<path fill-rule="evenodd" clip-rule="evenodd" d="M22.5 25C23.8807 25 25 23.8807 25 22.5C25 21.1193 23.8807 20 22.5 20C21.1193 20 20 21.1193 20 22.5C20 23.8807 21.1193 25 22.5 25Z" fill="#191919"/>
<path fill-rule="evenodd" clip-rule="evenodd" d="M32.5 25C33.8807 25 35 23.8807 35 22.5C35 21.1193 33.8807 20 32.5 20C31.1193 20 30 21.1193 30 22.5C30 23.8807 31.1193 25 32.5 25Z" fill="#191919"/>
<path fill-rule="evenodd" clip-rule="evenodd" d="M42.5 25C43.8807 25 45 23.8807 45 22.5C45 21.1193 43.8807 20 42.5 20C41.1193 20 40 21.1193 40 22.5C40 23.8807 41.1193 25 42.5 25Z" fill="#191919"/>
<path fill-rule="evenodd" clip-rule="evenodd" d="M2.5 35C3.88071 35 5 33.8807 5 32.5C5 31.1193 3.88071 30 2.5 30C1.11929 30 0 31.1193 0 32.5C0 33.8807 1.11929 35 2.5 35Z" fill="#191919"/>
<path fill-rule="evenodd" clip-rule="evenodd" d="M12.5 35C13.8807 35 15 33.8807 15 32.5C15 31.1193 13.8807 30 12.5 30C11.1193 30 10 31.1193 10 32.5C10 33.8807 11.1193 35 12.5 35Z" fill="#191919"/>
<path fill-rule="evenodd" clip-rule="evenodd" d="M22.5 35C23.8807 35 25 33.8807 25 32.5C25 31.1193 23.8807 30 22.5 30C21.1193 30 20 31.1193 20 32.5C20 33.8807 21.1193 35 22.5 35Z" fill="#191919"/>
<path fill-rule="evenodd" clip-rule="evenodd" d="M32.5 35C33.8807 35 35 33.8807 35 32.5C35 31.1193 33.8807 30 32.5 30C31.1193 30 30 31.1193 30 32.5C30 33.8807 31.1193 35 32.5 35Z" fill="#191919"/>
<path fill-rule="evenodd" clip-rule="evenodd" d="M42.5 35C43.8807 35 45 33.8807 45 32.5C45 31.1193 43.8807 30 42.5 30C41.1193 30 40 31.1193 40 32.5C40 33.8807 41.1193 35 42.5 35Z" fill="#191919"/>
<path fill-rule="evenodd" clip-rule="evenodd" d="M2.5 45C3.88071 45 5 43.8807 5 42.5C5 41.1193 3.88071 40 2.5 40C1.11929 40 0 41.1193 0 42.5C0 43.8807 1.11929 45 2.5 45Z" fill="#191919"/>
<path fill-rule="evenodd" clip-rule="evenodd" d="M12.5 45C13.8807 45 15 43.8807 15 42.5C15 41.1193 13.8807 40 12.5 40C11.1193 40 10 41.1193 10 42.5C10 43.8807 11.1193 45 12.5 45Z" fill="#191919"/>
<path fill-rule="evenodd" clip-rule="evenodd" d="M22.5 45C23.8807 45 25 43.8807 25 42.5C25 41.1193 23.8807 40 22.5 40C21.1193 40 20 41.1193 20 42.5C20 43.8807 21.1193 45 22.5 45Z" fill="#191919"/>
<path fill-rule="evenodd" clip-rule="evenodd" d="M32.5 45C33.8807 45 35 43.8807 35 42.5C35 41.1193 33.8807 40 32.5 40C31.1193 40 30 41.1193 30 42.5C30 43.8807 31.1193 45 32.5 45Z" fill="#191919"/>
<path fill-rule="evenodd" clip-rule="evenodd" d="M42.5 45C43.8807 45 45 43.8807 45 42.5C45 41.1193 43.8807 40 42.5 40C41.1193 40 40 41.1193 40 42.5C40 43.8807 41.1193 45 42.5 45Z" fill="#191919"/>
</svg>
