<svg width="55" height="55" viewBox="0 0 55 55" fill="none" xmlns="http://www.w3.org/2000/svg">
<g clip-path="url(#clip0)">
<path d="M45.2271 23.3473L47.1603 13.5621C47.8216 10.2151 46.9585 6.78358 44.7923 4.14766C42.6263 1.51174 39.4273 0 36.0155 0H18.9843C15.5725 0 12.3735 1.51174 10.2074 4.14766C8.04122 6.78358 7.17813 10.2151 7.83944 13.5621L9.77698 23.3693C6.65649 27.2774 4.93051 32.068 4.86432 37.127C4.82188 40.3649 5.44914 43.4996 6.72869 46.444C7.96311 49.2846 9.7383 51.8046 12.0053 53.9336C12.0053 53.9337 12.0054 53.9337 12.0054 53.9337C12.7377 54.6214 13.6933 55.0001 14.6963 55.0001H40.3036C41.3063 55.0001 42.2602 54.6229 42.9896 53.9381C45.222 51.8429 46.9792 49.3664 48.2126 46.5775C49.4899 43.6895 50.1374 40.6118 50.1374 37.4297C50.1374 32.2562 48.4089 27.3386 45.2271 23.3473ZM12.6977 6.19403C14.2492 4.30614 16.5406 3.22332 18.9843 3.22332H36.0155C38.4592 3.22332 40.7506 4.30614 42.3021 6.19403C43.8536 8.08204 44.4718 10.5399 43.9981 12.9373L42.5078 20.4807C41.5051 19.5905 40.4349 18.7976 39.3093 18.1072L40.4685 12.24C40.8303 10.4088 40.0309 9.09717 39.5224 8.47851C39.0139 7.85942 37.8818 6.82108 36.0154 6.82108H18.9843C17.1179 6.82108 15.9859 7.85941 15.4774 8.47829C14.9688 9.09717 14.1695 10.4088 14.5312 12.24L15.6938 18.1244C14.5707 18.8164 13.5011 19.6113 12.4965 20.5042L11.0015 12.9373C10.528 10.54 11.1461 8.08215 12.6977 6.19403ZM18.6746 16.5818L17.6934 11.6152C17.6134 11.2104 17.7057 10.8436 17.9678 10.5248C18.2297 10.206 18.5717 10.0444 18.9843 10.0444H36.0155C36.4281 10.0444 36.7701 10.206 37.0322 10.525C37.2941 10.8437 37.3863 11.2105 37.3064 11.6152L36.3271 16.572C33.6733 15.4488 30.8022 14.8383 27.8398 14.7947C24.6441 14.746 21.5369 15.363 18.6746 16.5818ZM45.2646 45.2736C44.207 47.6653 42.6993 49.7897 40.7835 51.588C40.6538 51.7096 40.4834 51.7767 40.3035 51.7767H14.6963C14.5163 51.7767 14.3443 51.7082 14.2119 51.584C10.2486 47.8615 8.01619 42.6075 8.08743 37.1691C8.15512 32.0003 10.2461 27.1563 13.9752 23.5296C17.7085 19.8989 22.6156 17.9442 27.7923 18.0177C32.9162 18.0932 37.7217 20.1461 41.3234 23.798C44.9287 27.4535 46.9141 32.2947 46.9141 37.4297C46.9141 40.1597 46.3592 42.7989 45.2646 45.2736Z" fill="#1F62A8"/>
<path d="M35.7433 31.4823H19.2566C18.3665 31.4823 17.6449 32.2039 17.6449 33.094C17.6449 33.984 18.3665 34.7056 19.2566 34.7056H35.7433C36.6334 34.7056 37.3549 33.984 37.3549 33.094C37.3549 32.2039 36.6334 31.4823 35.7433 31.4823Z" fill="#1F62A8"/>
<path d="M32.5199 37.4861H22.4798C21.5898 37.4861 20.8682 38.2077 20.8682 39.0977C20.8682 39.9878 21.5898 40.7094 22.4798 40.7094H32.5199C33.41 40.7094 34.1316 39.9878 34.1316 39.0977C34.1316 38.2077 33.41 37.4861 32.5199 37.4861Z" fill="#1F62A8"/>
</g>
<defs>
<clipPath id="clip0">
<rect width="55" height="55" fill="white"/>
</clipPath>
</defs>
</svg>
