<svg width="55" height="55" viewBox="0 0 55 55" fill="none" xmlns="http://www.w3.org/2000/svg">
<path d="M9.29089 19.4434H2.97449V22.666H9.29089V19.4434Z" fill="#1F62A8"/>
<path d="M9.29089 32.334H2.97449V35.5566H9.29089V32.334Z" fill="#1F62A8"/>
<path d="M9.29092 25.8887H0V29.1113H9.29092V25.8887Z" fill="#1F62A8"/>
<path d="M33.7566 6.25684C22.0431 6.25684 12.5134 15.7866 12.5134 27.5C12.5134 39.2135 22.043 48.7433 33.7566 48.7433C45.4702 48.7433 55 39.2135 55 27.5C55 15.7866 45.4702 6.25684 33.7566 6.25684ZM33.7566 45.5206C23.8201 45.5206 15.7361 37.4366 15.7361 27.5C15.7361 17.5635 23.8201 9.47949 33.7566 9.47949C43.6933 9.47949 51.7773 17.5635 51.7773 27.5C51.7773 37.4366 43.6933 45.5206 33.7566 45.5206Z" fill="#1F62A8"/>
<path d="M34.7972 28.3006V17.8917H31.5746V30.0042L39.8792 35.6635L41.694 33.0004L34.7972 28.3006Z" fill="#1F62A8"/>
</svg>
