<svg width="200" height="133" viewBox="0 0 200 133" fill="none" xmlns="http://www.w3.org/2000/svg">
<path fill-rule="evenodd" clip-rule="evenodd" d="M5.52995 5.52995V95.8529H200V101.383H4.60827V101.382H0V0H4.60827H5.52995H115.207V5.52995H5.52995ZM32.558 35.0228C32.3924 35.0228 32.258 35.1571 32.258 35.3228V66.0592C32.258 66.2249 32.3924 66.3592 32.558 66.3592H39.3313C39.497 66.3592 39.6313 66.2249 39.6313 66.0592V35.3228C39.6313 35.1571 39.497 35.0228 39.3313 35.0228H32.558ZM155.76 35.3229C155.76 35.1572 155.626 35.0229 155.46 35.0229H145C144.835 35.0229 144.7 35.1572 144.7 35.3229V42.0961C144.7 42.2618 144.835 42.3961 145 42.3961L155.46 42.3961C155.626 42.3961 155.76 42.2618 155.76 42.0961V35.3229ZM52.2345 58.9861C52.4002 58.9861 52.5345 59.1204 52.5345 59.2861V66.0594C52.5345 66.225 52.4002 66.3594 52.2345 66.3594H41.7746C41.6089 66.3594 41.4746 66.225 41.4746 66.0594V59.2861C41.4746 59.1204 41.6089 58.9861 41.7746 58.9861H52.2345ZM170.807 35.0229C170.641 35.0229 170.507 35.1572 170.507 35.3229V66.0593C170.507 66.225 170.641 66.3593 170.807 66.3593H177.58C177.746 66.3593 177.88 66.225 177.88 66.0593V35.3229C177.88 35.1572 177.746 35.0229 177.58 35.0229H170.807ZM190.483 58.9861C190.649 58.9861 190.783 59.1204 190.783 59.2861V66.0594C190.783 66.225 190.649 66.3594 190.483 66.3594H180.023C179.858 66.3594 179.723 66.225 179.723 66.0594V59.2861C179.723 59.1204 179.858 58.9861 180.023 58.9861H190.483ZM135.784 35.0229C135.618 35.0229 135.484 35.1572 135.484 35.3229V66.0593C135.484 66.225 135.618 66.3593 135.784 66.3593H142.557C142.723 66.3593 142.857 66.225 142.857 66.0593V35.3229C142.857 35.1572 142.723 35.0229 142.557 35.0229H135.784ZM149.93 49.7698C150.096 49.7698 150.23 49.9041 150.23 50.0698V56.843C150.23 57.0087 150.096 57.143 149.93 57.143H145C144.835 57.143 144.7 57.0087 144.7 56.843V50.0698C144.7 49.9041 144.835 49.7698 145 49.7698H149.93ZM67.581 35.0229C67.4153 35.0229 67.281 35.1572 67.281 35.3229V66.0593C67.281 66.225 67.4153 66.3593 67.581 66.3593H74.3543C74.52 66.3593 74.6543 66.225 74.6543 66.0593V35.3229C74.6543 35.1572 74.52 35.0229 74.3543 35.0229H67.581ZM76.4976 60.4385C76.4976 60.5878 76.6073 60.7147 76.7555 60.7329C77.2751 60.7965 77.8042 60.8293 78.341 60.8293C85.4672 60.8293 91.2442 55.0523 91.2442 47.9261C91.2442 40.7998 85.4672 35.0229 78.341 35.0229C77.8042 35.0229 77.2751 35.0556 76.7555 35.1193C76.6073 35.1375 76.4976 35.2644 76.4976 35.4137V42.2866C76.4976 42.4936 76.7027 42.6387 76.9027 42.585C77.3613 42.4618 77.8434 42.3961 78.341 42.3961C81.3951 42.3961 83.8709 44.872 83.8709 47.9261C83.8709 50.9802 81.3951 53.456 78.341 53.456C77.8434 53.456 77.3613 53.3904 76.9027 53.2672C76.7027 53.2134 76.4976 53.3586 76.4976 53.5656V60.4385ZM106.291 62.673C106.125 62.673 105.991 62.8073 105.991 62.973V66.0596C105.991 66.2253 106.125 66.3596 106.291 66.3596H113.064C113.23 66.3596 113.364 66.2253 113.364 66.0596V62.973C113.364 62.8073 113.23 62.673 113.064 62.673H106.291ZM105.991 60.4385C105.991 60.5878 106.1 60.7147 106.249 60.7329C106.768 60.7965 107.297 60.8293 107.834 60.8293C114.96 60.8293 120.737 55.0523 120.737 47.9261C120.737 40.7998 114.96 35.0229 107.834 35.0229C107.297 35.0229 106.768 35.0556 106.249 35.1193C106.1 35.1375 105.991 35.2644 105.991 35.4137V42.2866C105.991 42.4936 106.196 42.6387 106.396 42.585C106.854 42.4618 107.337 42.3961 107.834 42.3961C110.888 42.3961 113.364 44.872 113.364 47.9261C113.364 50.9802 110.888 53.456 107.834 53.456C107.337 53.456 106.854 53.3904 106.396 53.2672C106.196 53.2134 105.991 53.3586 105.991 53.5656V60.4385Z" fill="white"/>
<path d="M189.862 121.106H192.549V130.529H198.372V132.719H189.862V121.106Z" fill="white"/>
<path d="M171.429 121.106H174.116V132.719H171.429V121.106Z" fill="white"/>
<path d="M150.153 123.263V126.332H155.528V128.488H150.153V132.719H147.465V121.106H156.241V123.263H150.153Z" fill="white"/>
<path d="M126.17 132.918C124.964 132.918 123.875 132.658 122.901 132.138C121.939 131.619 121.182 130.905 120.629 129.998C120.087 129.08 119.816 128.052 119.816 126.913C119.816 125.773 120.087 124.75 120.629 123.843C121.182 122.925 121.939 122.207 122.901 121.687C123.875 121.167 124.964 120.907 126.17 120.907C127.375 120.907 128.459 121.167 129.421 121.687C130.383 122.207 131.141 122.925 131.694 123.843C132.247 124.75 132.524 125.773 132.524 126.913C132.524 128.052 132.247 129.08 131.694 129.998C131.141 130.905 130.383 131.619 129.421 132.138C128.459 132.658 127.375 132.918 126.17 132.918ZM126.17 130.629C126.855 130.629 127.475 130.474 128.028 130.164C128.581 129.843 129.012 129.401 129.322 128.837C129.642 128.273 129.803 127.631 129.803 126.913C129.803 126.194 129.642 125.552 129.322 124.988C129.012 124.424 128.581 123.987 128.028 123.677C127.475 123.357 126.855 123.196 126.17 123.196C125.484 123.196 124.865 123.357 124.312 123.677C123.759 123.987 123.322 124.424 123.001 124.988C122.691 125.552 122.536 126.194 122.536 126.913C122.536 127.631 122.691 128.273 123.001 128.837C123.322 129.401 123.759 129.843 124.312 130.164C124.865 130.474 125.484 130.629 126.17 130.629Z" fill="white"/>
<path d="M101.408 132.719L99.1687 129.484H99.036H96.6968V132.719H94.0092V121.106H99.036C100.065 121.106 100.955 121.277 101.707 121.62C102.47 121.963 103.056 122.45 103.465 123.08C103.875 123.711 104.079 124.457 104.079 125.32C104.079 126.182 103.869 126.929 103.449 127.559C103.04 128.179 102.453 128.654 101.69 128.986L104.295 132.719H101.408ZM101.359 125.32C101.359 124.667 101.148 124.17 100.728 123.827C100.308 123.473 99.694 123.296 98.8867 123.296H96.6968V127.344H98.8867C99.694 127.344 100.308 127.167 100.728 126.813C101.148 126.459 101.359 125.961 101.359 125.32Z" fill="white"/>
<path d="M73.2295 121.106C74.2581 121.106 75.1484 121.277 75.9005 121.62C76.6636 121.963 77.2498 122.45 77.659 123.08C78.0682 123.711 78.2728 124.457 78.2728 125.32C78.2728 126.171 78.0682 126.918 77.659 127.559C77.2498 128.19 76.6636 128.676 75.9005 129.019C75.1484 129.351 74.2581 129.517 73.2295 129.517H70.8903V132.719H68.2028V121.106H73.2295ZM73.0802 127.327C73.8876 127.327 74.5014 127.156 74.9217 126.813C75.3419 126.459 75.5521 125.961 75.5521 125.32C75.5521 124.667 75.3419 124.17 74.9217 123.827C74.5014 123.473 73.8876 123.296 73.0802 123.296H70.8903V127.327H73.0802Z" fill="white"/>
<path d="M47.4231 121.106C48.4516 121.106 49.342 121.277 50.094 121.62C50.8572 121.963 51.4433 122.45 51.8526 123.08C52.2618 123.711 52.4664 124.457 52.4664 125.32C52.4664 126.171 52.2618 126.918 51.8526 127.559C51.4433 128.19 50.8572 128.676 50.094 129.019C49.342 129.351 48.4516 129.517 47.4231 129.517H45.0839V132.719H42.3963V121.106H47.4231ZM47.2738 127.327C48.0811 127.327 48.695 127.156 49.1152 126.813C49.5355 126.459 49.7456 125.961 49.7456 125.32C49.7456 124.667 49.5355 124.17 49.1152 123.827C48.695 123.473 48.0811 123.296 47.2738 123.296H45.0839V127.327H47.2738Z" fill="white"/>
<path d="M0 121.106H2.68756V130.529H8.5106V132.719H0V121.106Z" fill="white"/>
<path d="M23.9631 121.106H26.6507V132.719H23.9631V121.106Z" fill="white"/>
</svg>
